<svg width="50" height="50" viewBox="0 0 50 50" fill="none" xmlns="http://www.w3.org/2000/svg">
<path fill-rule="evenodd" clip-rule="evenodd" d="M25 2.19931L27.188 0L28.9609 2.54714L31.4969 0.763021L32.7985 3.56823L35.6036 2.25538L36.4003 5.25139L39.3964 4.4434L39.6543 7.52917L42.7401 7.2599L42.4708 10.3456L45.5566 10.6036L44.7487 13.5997L47.7446 14.3964L46.4206 17.2016L49.237 18.5031L47.4529 21.0391L50 22.8119L47.8007 25L50 27.188L47.4529 28.9609L49.237 31.4969L46.4206 32.7985L47.7446 35.6036L44.7487 36.4003L45.5566 39.3964L42.4708 39.6543L42.7401 42.7401L39.6543 42.4708L39.3964 45.5566L36.4003 44.7487L35.6036 47.7446L32.7985 46.4206L31.4969 49.237L28.9609 47.4529L27.188 50L25 47.8007L22.8119 50L21.0391 47.4529L18.5031 49.237L17.2016 46.4206L14.3964 47.7446L13.5997 44.7487L10.6036 45.5566L10.3456 42.4708L7.2599 42.7401L7.52917 39.6543L4.4434 39.3964L5.25139 36.4003L2.25538 35.6036L3.56823 32.7985L0.763021 31.4969L2.54714 28.9609L0 27.188L2.19931 25L0 22.8119L2.54714 21.0391L0.763021 18.5031L3.56823 17.2016L2.25538 14.3964L5.25139 13.5997L4.4434 10.6036L7.52917 10.3456L7.2599 7.2599L10.3456 7.52917L10.6036 4.4434L13.5997 5.25139L14.3964 2.25538L17.2016 3.56823L18.5031 0.763021L21.0391 2.54714L22.8119 0L25 2.19931ZM15.3227 26.1672C15.6567 26.6072 16.1002 26.9445 16.5697 27.1342C17.4427 27.4558 18.6114 27.3112 19.3763 26.7755C20.8022 25.777 21.1078 23.6967 20.0972 22.2533C19.4033 21.2618 18.393 20.8549 17.5164 20.8984C16.9634 20.923 16.3516 21.196 15.7951 21.5858L15.308 20.8901C16.1948 20.269 16.4467 19.4446 16.4956 19.255C16.7075 18.4844 16.5561 17.5279 16.0204 16.7626C15.156 15.5278 13.6549 15.0496 12.2119 16.0603C11.7425 16.3891 11.1252 16.951 11.0174 17.9076C10.9325 18.5633 11.1256 19.2833 11.51 19.8696L10.7796 20.381C10.1883 19.4991 10.0419 18.5131 10.1706 17.6972C10.367 16.4971 11.099 15.803 11.7247 15.3646C13.6375 14.0251 15.6756 14.5675 16.7836 16.1503C17.4775 17.1414 17.9197 18.6982 16.9182 20.229C18.4502 19.7521 19.9596 20.3538 20.8851 21.6756C22.2486 23.6234 21.7587 26.1438 19.8633 27.4712C18.8201 28.2018 17.3072 28.4837 16.022 27.9066C15.5404 27.6996 14.9959 27.3292 14.5577 26.7031L15.3227 26.1672ZM31.1541 14.95L29.5372 16.0825L23.1816 7.00398L23.0168 21.6857L29.259 17.314L30.8052 19.5228L31.5704 18.987L30.024 16.7782L31.6411 15.6457L31.1541 14.95ZM23.9994 9.80059L28.7722 16.6183L23.8862 20.0401L23.9994 9.80059ZM24.713 29.4853C24.3321 29.2791 23.8209 29.1114 23.4083 29.0851C23.0556 29.0693 22.4718 29.1364 21.8021 29.6055C20.6385 30.4204 20.3336 31.7115 21.0989 32.8048C21.42 33.2634 21.7285 33.4414 22.2558 33.519C22.8552 33.6247 23.4319 33.51 24.0084 33.3952L25.4823 33.0989C26.3798 32.9171 27.2368 32.7899 28.0762 32.9379C29.0951 33.1178 29.8234 33.6325 30.4159 34.4792C31.9343 36.6482 31.3423 39.2176 29.2268 40.6993C28.4511 41.2425 27.3703 41.7631 26.0038 41.5374C25.027 41.3806 24.1065 40.8163 23.454 40.2223L24.4765 38.9805C24.9968 39.5357 25.6492 39.8675 26.2311 39.9854C27.1005 40.1389 27.7808 39.8722 28.3802 39.4526C29.9847 38.3289 29.9404 36.6518 29.113 35.4704C28.7427 34.9412 28.2631 34.5939 27.5684 34.5023C27.0112 34.4195 26.4046 34.529 25.5902 34.6789L24.1867 34.9259L24.0607 34.9489C23.4767 35.056 22.7651 35.1864 21.9386 35.0549C21.0815 34.9193 20.3992 34.5825 19.7819 33.7009C18.5104 31.8845 19.0513 29.6923 20.9555 28.3588C21.6783 27.8525 22.359 27.5861 23.2123 27.5667C23.9104 27.5508 24.6492 27.743 25.2717 28.0689L24.713 29.4853ZM38.9564 33.8855L31.5864 23.3579L34.4425 21.3576L33.5785 20.1231L26.5616 25.0372L27.4259 26.2718L30.2819 24.2716L37.6518 34.7992L38.9564 33.8855Z" fill="#25B7B6"/>
</svg>
