<svg width="66" height="55" viewBox="0 0 66 55" fill="none" xmlns="http://www.w3.org/2000/svg">
<path d="M39.986 39.6034C37.7741 39.2321 35.2981 40.606 33.0862 43.391C33.0532 43.3538 33.0202 43.2796 33.0202 43.2424C33.1192 41.0145 33.4493 38.8979 34.4397 36.9298C35.4962 34.8133 37.0478 33.4022 39.1606 32.8452C39.2927 32.8081 39.4247 32.8081 39.5568 32.771C39.6889 32.7338 39.8209 32.7338 39.986 32.6967C39.986 29.8746 39.986 27.1268 39.986 24.2675C38.9956 24.0819 38.0712 24.1561 37.1468 24.6389C36.2225 25.1216 35.7603 26.0499 35.5292 27.201C35.4301 27.0896 35.3641 27.0525 35.3311 27.0154C34.5718 25.233 34.2417 23.3392 34.6048 21.3712C34.968 19.2917 36.4866 17.8064 38.3353 17.6208C38.7315 17.5836 39.1606 17.5836 39.5568 17.5836C39.6889 17.5836 39.8209 17.5465 39.953 17.5094C39.953 17.3608 39.986 17.2123 39.986 17.1009C40.019 15.727 40.052 14.3531 40.052 12.942C40.052 12.0137 39.986 11.0482 39.8539 10.1199C39.7879 9.56293 39.5568 8.9688 39.2927 8.48607C38.1372 6.10957 35.067 6.22097 33.9776 8.26328C33.7795 8.67174 33.5814 9.0802 33.4163 9.48866C33.2843 9.89712 33.2183 10.3798 33.0202 10.8254C32.9211 10.3427 32.7891 9.85999 32.7561 9.37726C32.1948 4.06726 36.4536 0.0940481 40.6793 0.836705C42.0328 1.09664 43.0562 1.83929 43.9476 2.95328C45.103 4.40146 45.5652 6.18384 45.8293 8.04048C45.8953 8.52321 45.9284 9.00593 45.9944 9.56293C46.1595 9.48866 46.2915 9.41439 46.4236 9.34013C47.0838 8.82027 47.7771 8.26328 48.4374 7.78055C48.7015 7.55775 48.8335 7.33495 48.8005 6.96363C48.7675 5.96104 48.8005 4.95845 48.8005 3.8816C49.0646 3.8816 49.2957 3.8816 49.5928 3.8816C49.5928 4.77279 49.5928 5.62684 49.5928 6.51803C49.6589 6.55516 49.6919 6.5923 49.7579 6.5923C52.432 4.43859 55.073 2.24775 57.8131 0.0569153C59.86 3.13894 62.6991 4.62426 66.0004 5.29265C65.8023 5.51544 65.6703 5.70111 65.5382 5.84964C64.7129 6.74083 63.8876 7.66915 63.0622 8.56034C62.8642 8.78314 62.7651 9.04307 62.7651 9.37726C62.7981 16.841 62.7981 24.3047 62.8312 31.7684C62.8312 32.9938 63.1943 34.1449 63.5574 35.2589C63.6235 35.4445 63.6895 35.6673 63.7885 35.9273C59.0676 36.2614 55.9314 39.1949 53.5874 43.5766C52.3329 42.7226 51.1114 41.8314 49.5928 41.3486C49.5928 45.7303 49.5928 50.0377 49.5928 54.3823C46.9848 54.5308 45.136 53.1198 43.5514 51.0403C41.9998 53.3054 40.1841 54.8279 37.51 54.6051C37.543 54.4937 37.543 54.4194 37.576 54.3823C38.9626 52.5628 39.5568 50.4091 39.8869 48.0697C40.118 46.1759 40.1841 41.5714 39.986 39.6034ZM49.7909 32.4368C52.465 33.2537 54.6108 35.0732 56.8227 36.8927C56.8227 27.5724 56.8227 18.4005 56.8227 9.1916C54.6439 9.11733 53.2573 7.81768 52.3329 5.70111C51.6066 6.33237 50.9794 6.88936 50.3191 7.40922C49.923 7.70628 49.7909 8.07761 49.7909 8.59747C49.7909 16.284 49.7909 23.9705 49.7909 31.6198C49.7909 31.8798 49.7909 32.1026 49.7909 32.4368ZM48.7675 8.56034C48.0412 9.1916 47.447 9.74859 46.7867 10.1942C46.2915 10.5655 46.1264 11.0111 46.1264 11.6424C46.1595 22.3366 46.1264 33.068 46.1264 43.7623C46.1264 45.2476 46.1264 46.7329 46.1595 48.2554C46.1925 49.3693 46.3905 50.4462 46.8857 51.4117C47.2819 52.1914 47.9092 52.7113 48.7675 52.9341C48.7675 38.1552 48.7675 23.4506 48.7675 8.56034Z" fill="#D72E25"/>
<path d="M13.8394 34.0706C13.8394 25.233 13.8394 16.4325 13.8394 7.59487C13.6083 7.59487 13.3772 7.59487 13.1791 7.632C11.5945 7.81767 10.0099 8.04046 8.42522 8.18899C7.00565 8.30039 5.61909 8.18899 4.26555 7.70627C3.34118 7.37207 2.54886 6.81508 1.82257 6.07242C0.634088 4.84704 0.270942 3.25032 0.0728625 1.57934C0.0398492 1.13375 0.0398492 0.688156 0.00683594 0.168296C0.799154 0.391093 1.52545 0.613891 2.21872 0.799555C3.80336 1.17088 5.388 1.35655 6.97264 1.20802C9.44863 0.985219 11.8916 0.688156 14.3676 0.428226C16.6785 0.168296 18.9895 -0.1659 21.3004 0.0940305C24.1725 0.428226 26.3184 2.0992 27.6059 4.95843C28.3982 6.66655 28.7614 8.56032 28.8934 10.4541C29.0255 12.385 29.0915 14.353 29.1245 16.3211C29.1576 21.334 29.1576 26.347 29.1245 31.3228C29.1245 32.9566 29.4217 34.4419 29.9829 35.9272C30.0819 36.15 30.1479 36.41 30.28 36.7442C25.1299 37.5982 20.442 39.492 16.5795 43.4281C11.1323 39.9005 5.68512 39.8633 0.237929 43.2053C0.336969 42.4998 2.11968 40.0118 3.6383 38.4894C5.05787 37.0784 6.60949 35.9644 8.39221 35.1846C10.1419 34.3677 11.9576 34.1077 13.8394 34.0706ZM14.8298 34.0706C14.9949 34.1077 15.1599 34.182 15.292 34.182C17.0087 34.4791 18.5603 35.1846 19.9138 36.3728C20.409 36.8184 20.9042 37.3012 21.3664 37.821C21.6305 38.1181 21.8286 38.1923 22.1257 37.9695C22.1918 37.9324 22.2578 37.8953 22.3568 37.8581C23.1491 37.4868 23.0831 37.6725 23.0831 36.707C23.0831 28.6863 23.0501 20.6656 23.0501 12.6078C23.0501 11.7537 22.9511 10.974 22.753 10.157C22.3568 8.48606 21.3994 7.5206 19.9468 7.18641C18.2632 6.74081 16.5795 7.14927 14.8628 7.33494C14.8298 16.284 14.8298 25.1587 14.8298 34.0706Z" fill="#D72E25"/>
<path d="M4.92538 25.7528C4.03402 25.7157 3.10965 25.53 2.18528 25.7528C1.35995 25.9385 0.79872 26.5697 0.666667 27.5352C0.633653 27.7209 0.60064 27.9065 0.60064 28.1293C0.534614 28.0922 0.5016 28.0922 0.468587 28.0551C0.00640154 26.1984 -0.191678 24.3046 0.237494 22.4109C0.666667 20.48 1.7561 19.366 3.50581 19.0689C3.96799 18.9946 4.43018 18.9575 4.92538 18.8832C4.9914 18.3634 5.02442 17.8435 5.12346 17.3237C5.55263 14.7244 6.70809 12.6821 8.75492 11.3081C9.74531 10.6397 10.7687 10.0456 11.9242 9.71143C11.9242 9.82282 11.9242 9.93422 11.8912 9.97136C11.3299 11.2339 11.1979 12.6078 11.1979 14.0188C11.1649 18.549 11.1319 23.0421 11.0658 27.5723C11.0658 28.3893 10.7687 29.0948 10.4386 29.8003C10.0094 30.7286 9.38217 31.5084 8.62286 32.1768C7.13727 33.4765 5.45359 34.1448 3.67087 34.7018C3.67087 34.6276 3.67087 34.5533 3.67087 34.5533C4.66127 33.5507 4.95839 32.2139 4.9914 30.8029C5.05743 29.169 5.02442 27.5723 5.02442 25.9385C4.9914 25.9014 4.95839 25.8642 4.92538 25.7528Z" fill="#D72E25"/>
</svg>
