<svg width="79" height="24" viewBox="0 0 79 24" fill="none" xmlns="http://www.w3.org/2000/svg">
<path d="M34.6914 9.22353C34.5713 8.47541 32.321 8.22462 29.6649 8.66402C27.0096 9.10395 24.954 10.0668 25.0744 10.8152C25.1946 11.5639 27.4447 11.8141 30.1007 11.3749C32.7563 10.9348 34.8116 9.97229 34.6914 9.22353Z" fill="#3964A6"/>
<path d="M47.549 9.63596C47.4288 8.88784 45.1774 8.63716 42.5224 9.07634C39.8665 9.51617 37.8116 10.4788 37.9318 11.2275C38.0521 11.9763 40.3025 12.2263 42.9574 11.7866C45.6134 11.3474 47.6694 10.3841 47.549 9.63596Z" fill="#3964A6"/>
<path d="M43.3985 5.39471C43.2782 4.64659 41.0283 4.39579 38.3726 4.83509C35.7161 5.27512 33.6612 6.23798 33.7814 6.98642C33.9017 7.73507 36.1526 7.98512 38.8078 7.54604C41.4639 7.10664 43.5187 6.14336 43.3985 5.39471Z" fill="#3964A6"/>
<path d="M50.9326 8.86672C50.9326 8.86672 54.9559 9.11645 55.1068 8.46103C55.2752 7.7224 53.2868 6.62503 50.6647 6.0094C50.2211 5.90518 49.374 5.75775 49.374 5.75775L48.3738 7.69723L47.1355 5.91755C47.1355 5.91755 45.685 5.91595 45.613 6.23214C45.4753 6.83817 48.4778 8.43041 48.4778 8.43041L49.7281 10.5506L50.9326 8.86672Z" fill="#3964A6"/>
<path d="M78.8764 17.2922C76.8007 11.067 47.3279 0.586718 45.9443 0.172922L45.3118 0.0289092L45.3113 0.0283758V0.0286958H45.3108L45.3113 0.0292292L44.543 1.56216L43.6779 0L40.3273 0.264556C11.0221 3.95149 2.80295 10.1072 0.560086 12.7906C0.00707729 13.4518 -0.143016 14.3492 0.139249 15.1449L1.05485 18.5583C1.05485 18.5583 2.95368 24.4474 28.8001 23.8878C35.0909 23.7528 55.0541 20.8677 55.0541 20.8677L55.0455 20.8432L55.0553 20.8668V20.8673C75.0845 23.0642 74.2726 22.6526 75.7611 22.2401C77.0608 21.8805 78.4619 19.3842 78.7981 18.7529C78.8042 18.7431 78.8091 18.7322 78.815 18.7212C78.8517 18.6519 78.8741 18.6076 78.8741 18.6076C78.8724 18.6098 78.8692 18.612 78.8675 18.6141C79.0348 18.2479 79.0502 17.8118 78.8764 17.2922ZM27.5466 17.4762C18.8722 17.9256 10.8129 17.409 9.37344 14.1875C6.04995 6.74854 44.9616 2.52897 44.9616 2.52897L45.0469 2.51222L44.649 1.79109C44.6512 1.79088 44.6523 1.79088 44.6533 1.79056L51.9108 14.4792C50.1052 14.8028 38.4424 16.8401 27.5466 17.4762ZM73.0135 17.157C68.1632 17.5067 55.1882 14.6076 55.1844 14.6065V14.606L53.8434 15.3388C53.8434 15.3388 50.5414 7.27872 46.4141 2.56716L59.4778 7.77145C59.4778 7.77145 71.2724 12.7266 73.4627 16.1023C73.8113 16.6401 73.6049 16.9741 73.0135 17.157Z" fill="#3964A6"/>
</svg>
